<svg width="415" height="415" viewBox="0 0 415 415" fill="none" xmlns="http://www.w3.org/2000/svg">
<path d="M110.924 270.195L79.0872 381.83M35.0972 369.261L123.048 394.339M64.5918 178.183L121.951 26.1154L230.236 56.9439L198.755 216.422C196.913 225.952 193.11 234.994 187.587 242.976C182.065 250.957 174.943 257.703 166.674 262.785C158.405 267.867 149.17 271.175 139.554 272.498C129.939 273.821 120.154 273.13 110.82 270.47C101.486 267.809 92.8065 263.237 85.3335 257.044C77.8605 250.85 71.7568 243.171 67.4098 234.493C63.0628 225.815 60.5676 216.328 60.0825 206.634C59.5974 196.941 61.133 187.252 64.5918 178.183Z" stroke="#DBAD39" stroke-opacity="0.5" stroke-linecap="round" stroke-linejoin="round"/>
<path d="M93.3157 101.912L214.436 136.742" stroke="#DBAD39" stroke-opacity="0.5"/>
<path d="M253.95 265.689C266.549 271.905 280.727 274.187 294.64 272.238C308.553 270.29 321.558 264.2 331.965 254.763C342.371 245.325 349.698 232.974 352.993 219.317C356.287 205.66 355.397 191.328 350.438 178.183L293.019 26.1154L275.945 30.9471M304.076 270.195L335.913 381.83M379.903 369.261L291.952 394.339M321.684 102.268L272.21 116.496" stroke="#DBAD39" stroke-opacity="0.5" stroke-linecap="round" stroke-linejoin="round"/>
</svg>
